<?xml version="1.0" encoding="UTF-8"?>
<svg id="a" data-name="Layer 1" xmlns="http://www.w3.org/2000/svg" width="1080" height="1080" viewBox="0 0 1080 1080">
  <defs>
    <style>
      .b {
        fill: #231f20;
      }
    </style>
  </defs>
  <g>
    <path class="b" d="M833.64,435.294l-71.172-83.834s-.044-.044-.087-.044c-.044-.044-.087-.175-.175-.219-.131-.175-.306-.262-.481-.393-.175-.175-.349-.262-.524-.437l-60.081-37.114c5.24,16.287,8.078,33.621,8.078,51.61,0,4.89-.262,9.694-.655,14.496l-11.789,7.292c1.004-7.117,1.528-14.409,1.528-21.788,0-87.284-70.997-158.281-158.281-158.281s-158.281,70.997-158.281,158.281c0,7.379,.568,14.671,1.528,21.788l-11.789-7.292c-.393-4.803-.655-9.606-.655-14.496,0-17.989,2.838-35.324,8.078-51.61l-60.081,37.114c-.044,.043-.087,.087-.175,.175-.087,.044-.175,.131-.262,.175-.044,.087-.087,.087-.131,.131-.131,.087-.305,.218-.437,.349-.044,.044-.131,.175-.175,.219-.044,0-.044,.044-.087,.044l-67.024,79.031-4.104,4.803c-1.048,1.223-1.485,2.838-1.223,4.366,.218,1.572,1.135,2.969,2.489,3.799l68.552,42.354v81.433c0,1.878,1.004,3.624,2.576,4.628l218.319,134.921c.175,.131,.349,.175,.524,.219,.087,.087,.175,.131,.306,.218,.087,0,.175,0,.262,.044,.568,.218,1.179,.349,1.79,.349s1.222-.131,1.79-.349c.087-.044,.218-.044,.306-.044,.087-.087,.175-.131,.262-.218,.175-.044,.349-.087,.524-.219l8.296-5.152,210.023-129.769c1.616-1.004,2.576-2.751,2.576-4.628v-81.433l63.138-39.035,5.415-3.318c1.354-.83,2.27-2.227,2.532-3.799,.218-1.528-.218-3.144-1.222-4.366Zm-169.634-64.273c0-3.013,2.445-5.458,5.458-5.458s5.458,2.445,5.458,5.458c0,10.829-1.354,21.439-3.93,31.569l-14.104,8.689c4.628-12.575,7.117-26.155,7.117-40.258Zm-15.85-5.458c3.013,0,5.458,2.445,5.458,5.458,0,17.989-4.454,34.975-12.357,49.908l-23.098,14.322c15.239-17.116,24.539-39.647,24.539-64.229,0-3.013,2.445-5.458,5.458-5.458Zm-28.425,5.458c0-3.013,2.445-5.458,5.458-5.458s5.458,2.445,5.458,5.458c0,46.545-37.9,84.489-84.533,84.489-3.013,0-5.458-2.445-5.458-5.458s2.445-5.458,5.458-5.458c40.608,0,73.617-33.054,73.617-73.573Zm-79.075,102.042c0-3.057,2.445-5.502,5.458-5.502,8.689,0,17.116-1.179,25.15-3.362l-22.967,14.234c-.742,0-1.441,.044-2.183,.044-3.013,0-5.458-2.401-5.458-5.414Zm53.794-108.199c0,30.041-24.364,54.449-54.449,54.449s-54.405-24.408-54.405-54.449,24.364-54.449,54.405-54.449,54.449,24.364,54.449,54.449Zm-60.562-90.69c3.013,0,5.458,2.445,5.458,5.458,0,3.057-2.445,5.458-5.458,5.458-40.607,0-73.617,33.054-73.617,73.661,0,3.013-2.445,5.458-5.458,5.458s-5.458-2.445-5.458-5.458c0-46.633,37.944-84.577,84.533-84.577Zm-96.584,84.577c0,3.013-2.445,5.458-5.458,5.458s-5.458-2.445-5.458-5.458c0-59.296,48.248-107.544,107.5-107.544,3.013,0,5.458,2.445,5.458,5.458,0,3.057-2.445,5.458-5.458,5.458-53.27,0-96.584,43.402-96.584,96.628Zm96.584-128.808c3.013,0,5.458,2.445,5.458,5.458s-2.445,5.458-5.458,5.458c-65.015,0-117.892,52.92-117.892,117.892,0,3.013-2.445,5.458-5.458,5.458s-5.458-2.445-5.458-5.458c0-71.041,57.811-128.808,128.808-128.808Zm-275.082,207.578l64.011-75.407,209.019,129.245-62.701,76.062-210.328-129.9Zm275.737,233.689v21.177l-207.403-128.153v-46.109l196.531,121.473v-88.55l-17.859-11.003,28.731-34.887v25.893c0,.087,.044,108.548,.044,108.548v31.351c0,.087-.044,.175-.044,.262Zm218.319-106.976l-207.403,128.153v-187.23l28.731,34.887-17.858,11.003v88.55l196.531-121.473v46.109Zm-141.951,3.187l-28.294-34.32-34.407-41.743,208.975-129.245,64.011,75.407-210.285,129.9Z"/>
    <path class="b" d="M540.001,330.632c18.906,0,34.232,15.326,34.232,34.232s-15.326,34.233-34.232,34.233c-3.013,0-5.458,2.489-5.458,5.458,0,3.013,2.445,5.458,5.458,5.458,24.888,0,45.148-20.26,45.148-45.148s-20.26-45.148-45.148-45.148c-3.013,0-5.458,2.445-5.458,5.458,0,2.969,2.445,5.458,5.458,5.458Z"/>
    <path class="b" d="M540.001,379.012c7.816,0,14.191-6.331,14.191-14.147,0-7.859-6.375-14.191-14.191-14.191s-14.147,6.331-14.147,14.191c0,7.816,6.331,14.147,14.147,14.147Z"/>
  </g>
  <g>
    <path class="b" d="M974.979,791.503c-3.231-5.065-8.384-7.597-15.326-7.597-5.109,0-9.17,2.096-12.27,6.288v-31.525h-16.461v89.336h15.151l.524-6.244c3.318,4.934,7.685,7.423,13.143,7.423,6.986,0,12.095-2.576,15.37-7.685,3.275-5.065,4.89-12.706,4.89-22.923v-4.847c-.087-9.737-1.746-17.16-5.021-22.225Zm-11.44,28.993c-.087,5.938-.742,9.955-1.965,12.008-1.223,2.096-3.406,3.1-6.55,3.1-1.834,0-3.362-.393-4.628-1.092-1.31-.742-2.271-1.834-3.013-3.318v-28.775c1.004-1.965,2.358-3.318,4.061-4.061,1.048-.437,2.183-.655,3.493-.655,3.187,0,5.414,1.135,6.681,3.406,1.266,2.271,1.921,6.724,1.921,13.405v5.982Z"/>
    <path class="b" d="M905.029,830.539c-1.659,3.275-4.366,4.89-8.121,4.89-4.017,0-6.026-3.057-6.113-9.169v-41.175h-16.461v40.738c0,7.641,1.484,13.405,4.497,17.378,2.969,3.973,7.335,5.982,13.143,5.982,5.72,0,10.305-2.314,13.71-6.943l.48,5.764h15.457v-62.919h-16.592v45.454Z"/>
    <polygon class="b" points="848.266 792.115 848.266 819.798 848.266 848.004 864.771 848.004 864.771 758.668 848.266 758.668 848.266 792.115"/>
    <path class="b" d="M801.939,781.155c1.878-3.187,5.109-4.803,9.693-4.803,4.497,0,7.598,1.135,9.3,3.406,1.659,2.271,2.576,6.375,2.751,12.357h17.16c-.655-9.65-3.406-17.073-8.165-22.225-4.803-5.152-11.789-7.728-21.046-7.728-9.388,0-16.723,3.144-21.963,9.431-5.283,6.331-7.903,15.282-7.903,26.897v14.278c0,11.658,2.533,20.653,7.641,26.94s12.444,9.475,22.006,9.475c9.126,0,16.156-2.489,21.177-7.467,4.977-4.978,7.685-12.27,8.121-21.919h-17.073c-.262,5.72-1.222,9.694-2.925,11.877-1.703,2.227-4.803,3.318-9.3,3.318-4.585,0-7.816-1.572-9.693-4.716-1.878-3.144-2.838-8.951-2.838-17.335v-16.025c.131-7.292,1.135-12.575,3.057-15.763Z"/>
    <path class="b" d="M765.261,830.539c-2.794,0-5.109,.873-6.855,2.576-1.79,1.703-2.663,3.886-2.663,6.506,0,2.663,.917,4.847,2.707,6.506,1.79,1.703,4.061,2.533,6.812,2.533s5.021-.83,6.855-2.489c1.834-1.659,2.751-3.842,2.751-6.55,0-2.664-.917-4.847-2.707-6.55-1.834-1.659-4.148-2.533-6.899-2.533Z"/>
    <path class="b" d="M738.277,785.085l-8.34,35.542-7.597-35.542h-17.684l18.164,63.574-1.266,4.235c-.655,2.445-1.659,4.148-2.926,5.152-1.31,.961-3.231,1.485-5.807,1.485l-1.921-.087v12.881c2.532,.742,4.759,1.092,6.768,1.092,8.558,0,14.365-5.327,17.466-15.981l20.74-72.351h-17.597Z"/>
    <path class="b" d="M693.959,833.814c-.699-.917-1.048-2.663-1.048-5.109v-31.307h8.471v-12.313h-8.471v-15.501h-16.461v15.501h-7.248v12.313h7.248v33.49c.131,12.182,5.502,18.295,16.112,18.295,3.275,0,6.288-.524,9.082-1.572l.131-12.793c-1.004,.262-2.314,.393-3.886,.393-1.965,0-3.275-.48-3.93-1.397Z"/>
    <path class="b" d="M650.731,791.897l-.48-6.812h-15.544v62.919h16.548v-41.568c1.572-3.973,4.628-5.938,9.126-5.938l5.458,.437,.175-16.287c-1.179-.48-2.663-.742-4.541-.742-4.585,0-8.165,2.663-10.741,7.991Z"/>
    <path class="b" d="M625.319,804.69c0-6.681-1.878-11.833-5.676-15.413-3.755-3.58-9.126-5.371-16.025-5.371-6.681,0-12.182,1.878-16.549,5.676s-6.55,8.558-6.55,14.409h16.461c0-4.803,2.052-7.248,6.2-7.248,1.834,0,3.275,.611,4.236,1.746,.96,1.179,1.441,3.188,1.441,6.026v5.065h-4.977c-7.947,.044-13.972,1.878-18.208,5.502-4.192,3.624-6.288,8.689-6.288,15.282,0,5.545,1.703,10.086,5.196,13.579,3.45,3.493,7.86,5.24,13.099,5.24,5.065,0,9.038-2.052,12.008-6.069,.437,2.314,.917,3.93,1.397,4.89h16.549v-1.004c-1.441-3.057-2.227-7.292-2.314-12.706v-29.604Zm-16.461,27.858c-.611,1.004-1.572,1.878-2.838,2.62-1.266,.699-2.838,1.092-4.672,1.092-3.624,0-5.458-2.314-5.458-6.986,0-2.969,.83-5.371,2.401-7.161,1.616-1.79,3.842-2.663,6.637-2.663h3.93v13.099Z"/>
    <path class="b" d="M546.681,763.34h-28.862v84.664h17.116v-29.779h11.396c8.733,0,15.544-2.401,20.478-7.204,4.89-4.803,7.379-11.353,7.379-19.649s-2.489-15.064-7.467-20.26c-5.021-5.196-11.658-7.772-20.042-7.772Zm7.554,37.42c-1.79,2.139-4.323,3.231-7.554,3.231h-11.746v-26.417h11.92c3.056,.044,5.502,1.31,7.292,3.799,1.834,2.489,2.751,5.851,2.751,10.086,0,4.061-.873,7.205-2.663,9.3Z"/>
    <path class="b" d="M491.97,790.674c-3.1-4.497-7.467-6.768-13.187-6.768-6.724,0-11.92,2.533-15.632,7.641-3.755,5.065-5.589,12.75-5.589,23.054v4.672c.087,9.519,1.921,16.854,5.589,22.05,1.834,2.62,4.061,4.585,6.637,5.895,2.62,1.31,5.589,1.965,8.951,1.965,5.021,0,9.126-2.052,12.27-6.2v5.415c-.044,3.93-.873,6.768-2.489,8.514-1.616,1.79-4.235,2.664-7.947,2.664-2.183,0-4.541-.524-7.03-1.528-2.489-1.048-4.497-2.358-6.026-4.017l-5.545,11.44c1.878,2.096,4.672,3.886,8.514,5.24,3.799,1.397,7.423,2.052,10.872,2.052,8.383,0,14.846-2.096,19.343-6.331,4.497-4.279,6.768-10.392,6.768-18.426v-62.919h-14.846l-.655,5.589Zm-.961,41.088c-1.659,2.445-4.148,3.668-7.51,3.668-3.318,0-5.72-1.31-7.205-3.973-1.528-2.664-2.27-6.899-2.27-12.706v-4.148c0-5.895,.786-10.217,2.358-12.881,1.572-2.707,3.973-4.017,7.205-4.017s5.72,1.31,7.423,4.017v30.041Z"/>
    <path class="b" d="M433.504,783.906c-6.026,0-10.872,2.445-14.627,7.379l-.437-6.2h-15.457v62.919h16.505v-45.716c.83-1.528,1.834-2.664,2.969-3.45,1.179-.742,2.489-1.135,4.017-1.135,2.663,0,4.541,.786,5.589,2.402,1.092,1.616,1.616,4.192,1.616,7.772v40.127h16.505v-41.349c-.306-15.151-5.851-22.749-16.68-22.749Z"/>
    <rect class="b" x="376.785" y="785.085" width="16.548" height="62.919"/>
    <path class="b" d="M384.994,760.065c-2.707,0-4.89,.83-6.506,2.445s-2.445,3.712-2.445,6.288c0,2.489,.83,4.585,2.401,6.288,1.616,1.659,3.799,2.489,6.55,2.489s4.934-.83,6.55-2.489c1.616-1.703,2.401-3.799,2.401-6.288,0-2.576-.786-4.672-2.445-6.288-1.616-1.616-3.799-2.445-6.506-2.445Z"/>
    <path class="b" d="M350.63,783.906c-6.026,0-10.872,2.445-14.584,7.379l-.48-6.2h-15.501v62.919h16.548v-45.716c.83-1.528,1.834-2.664,2.969-3.45,1.179-.742,2.489-1.135,4.017-1.135,2.664,0,4.541,.786,5.589,2.402,1.092,1.616,1.616,4.192,1.616,7.772v40.127h16.505v-41.349c-.306-15.151-5.851-22.749-16.68-22.749Z"/>
    <path class="b" d="M289.239,783.906c-8.122,0-14.322,2.707-18.688,8.078-1.616,2.009-2.925,4.366-3.973,7.03-1.659,4.454-2.533,9.737-2.533,15.937v5.021c0,4.803,.611,9.038,1.878,12.706,1.179,3.493,2.882,6.462,5.196,8.908,4.759,5.065,11.352,7.597,19.78,7.597,4.497,0,8.689-.873,12.531-2.62,3.842-1.703,6.768-3.973,8.776-6.768l-6.462-9.955c-3.668,3.842-8.296,5.763-13.798,5.763-3.799,0-6.593-1.092-8.427-3.275-1.834-2.139-2.838-5.589-3.057-10.305h32.748v-8.078c-.087-9.912-2.139-17.422-6.113-22.443-4.017-5.065-9.955-7.597-17.858-7.597Zm7.772,26.635h-16.461c.262-4.585,1.004-7.903,2.314-9.955,1.31-2.096,3.362-3.144,6.244-3.144s4.89,1.004,6.069,2.969c1.135,1.921,1.747,4.803,1.834,8.602v1.528Z"/>
    <path class="b" d="M252.256,833.814c-.655-.917-1.004-2.663-1.004-5.109v-31.307h8.427v-12.313h-8.427v-15.501h-16.461v15.501h-7.248v12.313h7.248v33.49c.131,12.182,5.502,18.295,16.112,18.295,3.275,0,6.288-.524,9.082-1.572l.131-12.793c-1.048,.262-2.314,.393-3.93,.393-1.921,0-3.231-.48-3.93-1.397Z"/>
    <path class="b" d="M205.317,810.366c-4.628-1.965-7.554-3.493-8.82-4.541-1.223-1.092-1.834-2.314-1.834-3.712,0-1.921,.568-3.449,1.659-4.541,1.135-1.092,2.576-1.616,4.323-1.616,4.279,0,6.419,2.532,6.419,7.685h16.461c0-6.026-2.096-10.829-6.244-14.366-4.148-3.58-9.693-5.371-16.592-5.371h-.48c-6.331,.087-11.396,1.878-15.282,5.371-3.974,3.58-5.982,8.165-5.982,13.667,0,4.366,1.266,8.034,3.799,10.96,2.576,2.969,7.205,5.807,14.016,8.558,4.585,2.008,7.597,3.624,8.907,4.803,1.354,1.179,2.009,2.489,2.009,3.886,0,3.973-2.183,5.982-6.637,5.982-2.838,0-4.934-.742-6.2-2.139-1.223-1.441-1.921-3.624-1.965-6.462h-15.675c0,3.712,1.004,7.161,3.013,10.392,2.009,3.231,4.759,5.72,8.296,7.554,3.493,1.79,7.597,2.707,12.182,2.707,.262,0,.524,0,.742-.044,6.55-.087,11.877-1.79,15.894-5.109,4.236-3.406,6.375-7.903,6.375-13.536,0-4.847-1.397-8.776-4.192-11.833-2.751-3.057-7.51-5.807-14.191-8.296Z"/>
    <rect class="b" x="153.838" y="785.085" width="16.505" height="62.919"/>
    <path class="b" d="M162.046,760.065c-2.707,0-4.89,.83-6.506,2.445-1.659,1.616-2.445,3.712-2.445,6.288,0,2.489,.786,4.585,2.401,6.288,1.616,1.659,3.799,2.489,6.55,2.489s4.934-.83,6.55-2.489c1.572-1.703,2.401-3.799,2.401-6.288,0-2.576-.83-4.672-2.445-6.288s-3.799-2.445-6.506-2.445Z"/>
    <polygon class="b" points="117.073 763.34 100 763.34 100 848.004 147.07 848.004 147.07 833.814 117.073 833.814 117.073 763.34"/>
  </g>
</svg>