<?xml version="1.0" encoding="UTF-8"?>
<svg id="a" data-name="Layer 1" xmlns="http://www.w3.org/2000/svg" width="1080" height="1080" viewBox="0 0 1080 1080">
  <defs>
    <style>
      .b {
        fill: #fff;
      }
    </style>
  </defs>
  <polygon class="b" points="759.044 452.655 827.335 533.065 602.939 671.652 536.046 590.453 759.044 452.612 759.044 452.655"/>
  <polygon class="b" points="754.435 619.055 754.435 668.206 533.155 804.969 533.155 605.218 563.817 642.441 544.762 654.23 544.762 748.702 754.435 619.055"/>
  <path class="b" d="M747.351,446.136l-12.525,7.778-27.909-16.857c.277,2.657,.469,5.313,.608,7.959,.235,3.499,.32,6.988,.32,10.53,0,5.174-.224,10.349-.651,15.416l-6.188,3.873-6.391,3.915c1.024-7.596,1.59-15.331,1.59-23.205,0-3.542-.096-7.031-.373-10.53-.277-5.26-.843-10.477-1.675-15.651-.982-6.284-2.283-12.482-3.958-18.542-.235-.928-.523-1.814-.8-2.742-.555-1.91-1.163-3.819-1.771-5.729-.32-.939-.651-1.91-.971-2.849-.704-1.995-1.451-4.001-2.24-5.953-.416-1.024-.789-2.006-1.206-2.987-25.488-60.929-85.723-103.839-155.785-103.882h-.085c-70.115,0-130.393,42.952-155.87,103.882-.427,.982-.789,1.963-1.216,2.987-.789,1.952-1.536,3.958-2.23,5.953-.331,.939-.651,1.91-.982,2.849-.608,1.91-1.216,3.819-1.771,5.729-.277,.928-.555,1.814-.789,2.742-1.675,6.06-2.987,12.258-3.958,18.542-.843,5.174-1.398,10.391-1.686,15.651-.277,3.499-.363,6.988-.363,10.53,0,7.874,.555,15.608,1.579,23.205l-6.38-3.915-6.199-3.873c-.416-5.068-.651-10.242-.651-15.416,0-3.542,.096-7.031,.32-10.53,.149-2.646,.331-5.302,.608-7.959l-27.899,16.857-12.536-7.778,42.91-26.501,.235-.139c.181-.886,.32-1.728,.555-2.614,.373-1.814,.789-3.627,1.259-5.398,.235-.886,.459-1.771,.693-2.657,.512-1.91,1.024-3.734,1.59-5.59,.277-.939,.555-1.867,.886-2.753,23.29-72.718,91.538-125.454,171.895-125.454s148.594,52.736,171.895,125.454c.32,.886,.597,1.814,.886,2.753,.555,1.856,1.067,3.681,1.579,5.59l.704,2.657c.459,1.771,.875,3.585,1.248,5.398,.235,.886,.373,1.728,.565,2.614l.235,.139,42.899,26.501Z"/>
  <path class="b" d="M671.283,462.075c0,11.597-1.451,22.916-4.193,33.671v.053l-15,9.271c4.886-13.421,7.543-27.909,7.543-42.995,0-3.222,2.614-5.825,5.825-5.825s5.825,2.603,5.825,5.825Z"/>
  <path class="b" d="M642.723,456.25c3.211,0,5.825,2.603,5.825,5.825,0,16.067-3.307,31.345-9.314,45.225-.8,1.824-1.59,3.585-2.475,5.356-.459,.939-.928,1.867-1.44,2.753l-2.614,1.579v.053l-21.892,13.507c5.132-5.729,9.602-12.066,13.325-18.82,.928-1.728,1.814-3.446,2.699-5.217,.843-1.728,1.632-3.542,2.379-5.356,4.94-12.066,7.682-25.253,7.682-39.08,0-3.222,2.614-5.825,5.825-5.825Z"/>
  <path class="b" d="M624.042,462.075c0,11.32-2.091,22.17-5.964,32.188-.693,1.856-1.44,3.681-2.283,5.452-.789,1.76-1.675,3.489-2.603,5.217-15.278,28.134-45.097,47.327-79.333,47.327-3.211,0-5.825-2.614-5.825-5.825s2.614-5.825,5.825-5.825c30.043,0,56.224-16.953,69.411-41.832,.928-1.718,1.771-3.489,2.518-5.26,.832-1.814,1.536-3.638,2.187-5.494,2.891-8.108,4.428-16.867,4.428-25.946,0-3.222,2.603-5.825,5.814-5.825s5.825,2.603,5.825,5.825Z"/>
  <path class="b" d="M584.45,445.016c.608,3.403,.928,6.945,.928,10.53,0,5.868-.886,11.597-2.518,16.963-.597,1.91-1.259,3.766-2.048,5.59-.747,1.814-1.579,3.585-2.561,5.26-9.826,18.03-28.923,30.235-50.911,30.235s-41.085-12.205-50.922-30.235c-.971-1.675-1.814-3.446-2.561-5.26-.789-1.824-1.44-3.681-2.048-5.59-1.632-5.366-2.518-11.096-2.518-16.963,0-3.585,.331-7.127,.928-10.53,4.993-27.056,28.656-47.561,57.121-47.561s52.128,20.505,57.11,47.561Zm-8.951,10.53c0-3.627-.416-7.127-1.163-10.53-4.79-21.519-24.079-37.639-46.996-37.639-3.222,0-5.825,2.614-5.825,5.825s2.603,5.825,5.825,5.825c16.483,0,30.459,10.946,34.983,25.989,.982,3.307,1.536,6.849,1.536,10.53,0,1.675-.096,3.361-.331,4.982-.277,2.059-.747,4.054-1.344,6.017-.608,1.91-1.355,3.723-2.283,5.452-6.017,11.917-18.308,20.068-32.561,20.068-3.222,0-5.825,2.614-5.825,5.825s2.603,5.825,5.825,5.825c18.393,0,34.417-10.391,42.526-25.573,.928-1.728,1.728-3.499,2.422-5.313,.747-1.867,1.355-3.777,1.824-5.772,.928-3.681,1.387-7.553,1.387-11.512Zm-33.02,0c0-.416,0-.832-.096-1.206-.235-3.638-1.814-6.849-4.15-9.324l-.181-.181-.096-.096c-1.579-1.536-3.489-2.699-5.59-3.446-1.579-.555-3.254-.886-5.025-.886s-3.446,.331-5.036,.886c-2.091,.747-4.001,1.91-5.59,3.446q-.043,.053-.096,.096l-.181,.181c-2.326,2.475-3.915,5.686-4.15,9.324-.085,.373-.085,.789-.085,1.206,0,1.814,.32,3.542,.928,5.132,2.091,5.814,7.682,9.965,14.211,9.965s12.109-4.15,14.2-9.965c.608-1.59,.939-3.318,.939-5.132Z"/>
  <path class="b" d="M560.648,561.572l-24.549,15.139c-.747,.053-1.494,.053-2.24,.053-3.211,0-5.825-2.614-5.825-5.825s2.614-5.825,5.825-5.825c9.271,0,18.265-1.216,26.789-3.542Z"/>
  <path class="b" d="M523.702,312.393c1.771,.982,2.934,2.891,2.934,5.036,0,3.211-2.603,5.825-5.825,5.825-5.59,0-11.031,.373-16.441,1.11-1.579,.192-3.211,.427-4.801,.704-3.905,.651-7.778,1.494-11.554,2.561-2.422,.608-4.79,1.355-7.169,2.187-18.489,6.156-35.079,16.537-48.586,30.001-1.771,1.728-3.446,3.499-5.036,5.356-2.742,2.987-5.302,6.103-7.682,9.367-.982,1.302-1.91,2.657-2.838,4.011-13.005,19.097-20.825,41.918-21.572,66.466-.096,1.355-.096,2.657-.096,4.011,0,3.211-2.603,5.825-5.825,5.825s-5.814-2.614-5.814-5.825c0-1.355,0-2.657,.085-4.011,.512-19.14,4.982-37.351,12.674-53.749,.469-1.12,.982-2.198,1.536-3.222,1.163-2.368,2.379-4.705,3.723-6.935,.608-1.163,1.312-2.336,2.006-3.446,1.632-2.657,3.35-5.27,5.217-7.831,.886-1.398,1.91-2.753,2.987-4.054,20.121-26.501,49.748-45.417,83.707-51.797,1.675-.331,3.35-.608,5.036-.843,3.019-.459,6.049-.832,9.122-1.024,1.355-.139,2.753-.235,4.107-.32,2.422-.149,4.79-.192,7.212-.192,.139,0,.331,0,.469,.043,.886,.053,1.728,.331,2.422,.747Z"/>
  <path class="b" d="M520.811,334.338c3.222,0,5.825,2.603,5.825,5.825s-2.603,5.814-5.825,5.814c-55.478,0-100.852,44.073-102.943,99.038-.053,1.355-.096,2.657-.096,4.011,0,3.211-2.614,5.825-5.825,5.825s-5.825-2.614-5.825-5.825c0-1.355,0-2.657,.096-4.011,1.355-39.826,23.109-74.575,55.157-94.045,17.326-10.573,37.682-16.633,59.436-16.633Z"/>
  <path class="b" d="M520.811,358.845c3.222,0,5.825,2.603,5.825,5.814s-2.603,5.825-5.825,5.825c-41.971,0-76.346,33.073-78.447,74.532-.043,1.355-.085,2.657-.085,4.011,0,3.211-2.614,5.825-5.825,5.825s-5.825-2.614-5.825-5.825c0-1.355,.043-2.657,.139-4.011,2.048-47.881,41.651-86.172,90.044-86.172Z"/>
  <polygon class="b" points="521.515 605.218 521.515 804.969 300.245 668.206 300.245 619.055 509.918 748.702 509.918 654.23 490.864 642.441 521.515 605.218"/>
  <polygon class="b" points="518.624 590.453 451.731 671.652 227.335 533.065 295.626 452.655 295.626 452.612 518.624 590.453"/>
</svg>