<?xml version="1.0" encoding="UTF-8"?>
<svg id="a" data-name="Layer 1" xmlns="http://www.w3.org/2000/svg" width="1080" height="1080" viewBox="0 0 1080 1080">
  <defs>
    <style>
      .b {
        fill: #fff;
      }
    </style>
  </defs>
  <g>
    <path class="b" d="M668.328,414.554c2.576-10.086,3.93-20.697,3.93-31.569,0-3.013-2.445-5.458-5.458-5.458s-5.458,2.445-5.458,5.458c0,14.147-2.489,27.726-7.074,40.302l14.06-8.689v-.044Z"/>
    <path class="b" d="M636.104,434.508v-.044l2.445-1.484c.48-.83,.917-1.703,1.354-2.576,.83-1.659,1.572-3.318,2.314-5.021,5.633-13.012,8.733-27.334,8.733-42.398,0-3.013-2.445-5.458-5.458-5.458s-5.458,2.445-5.458,5.458c0,12.968-2.576,25.325-7.204,36.634-.699,1.703-1.441,3.406-2.227,5.021-.83,1.659-1.659,3.275-2.533,4.89-3.493,6.331-7.685,12.27-12.488,17.64l20.522-12.663Z"/>
    <path class="b" d="M622.525,377.527c-3.013,0-5.458,2.445-5.458,5.458,0,8.514-1.441,16.723-4.148,24.321-.611,1.746-1.266,3.449-2.052,5.152-.699,1.659-1.484,3.318-2.358,4.934-12.357,23.316-36.896,39.21-65.059,39.21-3.013,0-5.458,2.445-5.458,5.458s2.445,5.458,5.458,5.458c32.093,0,60.038-17.989,74.36-44.362,.873-1.616,1.703-3.231,2.445-4.89,.786-1.659,1.484-3.362,2.139-5.109,3.624-9.388,5.589-19.561,5.589-30.172,0-3.013-2.445-5.458-5.458-5.458Z"/>
    <path class="b" d="M543.449,490.485c.699,0,1.397,0,2.096-.044l23.011-14.191c-7.991,2.183-16.418,3.318-25.107,3.318-3.013,0-5.458,2.445-5.458,5.458s2.445,5.458,5.458,5.458Z"/>
    <polygon class="b" points="750.198 530.132 553.667 651.648 553.667 563.098 571.525 552.051 542.795 517.164 542.795 704.394 750.198 576.197 750.198 530.132"/>
    <path class="b" d="M585.061,402.939c.917-1.572,1.703-3.231,2.401-4.934,.742-1.703,1.354-3.449,1.921-5.24,1.528-5.021,2.358-10.392,2.358-15.894,0-3.362-.306-6.68-.873-9.868-4.672-25.369-26.853-44.581-53.532-44.581s-48.86,19.212-53.532,44.581c-.568,3.187-.873,6.506-.873,9.868,0,5.502,.83,10.873,2.358,15.894,.568,1.79,1.179,3.537,1.921,5.24,.699,1.703,1.485,3.362,2.401,4.934,9.213,16.898,27.115,28.338,47.725,28.338s38.511-11.44,47.724-28.338Zm-61.042-21.264c-.568-1.485-.873-3.1-.873-4.803,0-.393,0-.786,.087-1.135,.218-3.406,1.703-6.419,3.886-8.733,.044-.044,.131-.131,.175-.175l.087-.087c1.485-1.441,3.275-2.533,5.24-3.231,1.484-.524,3.057-.83,4.716-.83s3.231,.306,4.715,.83c1.965,.699,3.755,1.79,5.24,3.231l.087,.087,.175,.175c2.183,2.314,3.668,5.327,3.886,8.733,.087,.349,.087,.742,.087,1.135,0,1.703-.306,3.318-.873,4.803-1.965,5.458-7.205,9.344-13.317,9.344s-11.353-3.886-13.318-9.344Zm7.86,34.887c0-3.013,2.445-5.458,5.458-5.458,13.361,0,24.888-7.641,30.521-18.819,.873-1.616,1.572-3.318,2.139-5.109,.568-1.834,1.004-3.712,1.266-5.633,.218-1.528,.306-3.1,.306-4.672,0-3.449-.524-6.768-1.441-9.868-4.235-14.104-17.334-24.364-32.791-24.364-3.013,0-5.458-2.445-5.458-5.458s2.445-5.458,5.458-5.458c21.483,0,39.559,15.108,44.057,35.28,.699,3.187,1.092,6.462,1.092,9.868,0,3.712-.437,7.336-1.31,10.785-.437,1.878-1.004,3.668-1.703,5.414-.655,1.703-1.397,3.362-2.271,4.978-7.597,14.234-22.618,23.971-39.865,23.971-3.013,0-5.458-2.445-5.458-5.458Z"/>
    <polygon class="b" points="521.006 651.648 324.476 530.132 324.476 576.197 531.879 704.394 531.879 517.164 503.148 552.051 521.006 563.098 521.006 651.648"/>
    <path class="b" d="M452.149,376.217c3.013,0,5.458-2.445,5.458-5.458,0-1.266,.044-2.489,.087-3.755,1.965-38.861,34.189-69.862,73.53-69.862,3.013,0,5.458-2.445,5.458-5.458s-2.445-5.458-5.458-5.458c-45.367,0-82.481,35.892-84.402,80.778-.087,1.266-.131,2.489-.131,3.755,0,3.013,2.445,5.458,5.458,5.458Z"/>
    <path class="b" d="M429.181,376.217c3.013,0,5.458-2.445,5.458-5.458,0-1.266,.044-2.489,.087-3.755,1.965-51.523,44.493-92.829,96.497-92.829,3.013,0,5.458-2.445,5.458-5.458s-2.445-5.458-5.458-5.458c-20.391,0-39.472,5.676-55.715,15.588-30.041,18.251-50.432,50.824-51.698,88.157-.087,1.266-.087,2.489-.087,3.755,0,3.013,2.445,5.458,5.458,5.458Z"/>
    <path class="b" d="M436.299,300.941c2.227-3.057,4.628-5.982,7.204-8.776,1.485-1.747,3.057-3.406,4.716-5.021,12.663-12.619,28.207-22.356,45.541-28.119,2.227-.786,4.454-1.484,6.724-2.052,3.537-1.004,7.161-1.79,10.829-2.401,1.484-.262,3.013-.481,4.497-.655,5.065-.699,10.174-1.048,15.413-1.048,3.013,0,5.458-2.445,5.458-5.458,0-2.009-1.092-3.799-2.751-4.716-.655-.393-1.441-.655-2.271-.699-.131-.044-.306-.044-.437-.044-2.271,0-4.497,.044-6.768,.175-1.266,.087-2.576,.175-3.842,.306-2.882,.175-5.72,.524-8.558,.961-1.572,.218-3.144,.48-4.716,.786-31.831,5.982-59.601,23.709-78.464,48.554-1.004,1.222-1.965,2.489-2.795,3.799-1.746,2.401-3.362,4.847-4.89,7.335-.655,1.048-1.31,2.139-1.878,3.231-1.266,2.096-2.401,4.279-3.493,6.506-.524,.961-1.004,1.965-1.441,3.013-7.204,15.37-11.396,32.442-11.876,50.388-.087,1.266-.087,2.489-.087,3.755,0,3.013,2.445,5.458,5.458,5.458s5.458-2.445,5.458-5.458c0-1.266,0-2.489,.087-3.755,.699-23.011,8.034-44.406,20.216-62.308,.873-1.266,1.746-2.533,2.663-3.755Z"/>
    <path class="b" d="M369.013,359.538c-.262,2.489-.437,4.978-.568,7.467-.218,3.275-.305,6.55-.305,9.868,0,4.847,.218,9.694,.611,14.453l5.807,3.624,5.982,3.668c-.96-7.117-1.484-14.366-1.484-21.745,0-3.318,.087-6.593,.349-9.868,.262-4.934,.786-9.824,1.572-14.671,.917-5.895,2.139-11.702,3.711-17.378,.218-.873,.48-1.703,.742-2.576,.524-1.79,1.092-3.58,1.659-5.371,.306-.873,.611-1.79,.917-2.663,.655-1.878,1.354-3.755,2.096-5.589,.393-.96,.742-1.878,1.135-2.794,23.884-57.112,80.385-97.37,146.099-97.37h.087c65.671,.044,122.128,40.258,146.012,97.37,.393,.917,.742,1.834,1.135,2.794,.742,1.834,1.441,3.712,2.096,5.589,.306,.873,.611,1.79,.917,2.663,.568,1.79,1.135,3.58,1.659,5.371,.262,.873,.524,1.703,.742,2.576,1.572,5.676,2.795,11.484,3.712,17.378,.786,4.847,1.31,9.737,1.572,14.671,.262,3.275,.349,6.55,.349,9.868,0,7.379-.524,14.628-1.485,21.745l5.982-3.668,5.807-3.624c.393-4.759,.611-9.606,.611-14.453,0-3.318-.087-6.593-.306-9.868-.131-2.489-.306-4.978-.568-7.467l26.155,15.806,11.746-7.292-40.214-24.845-.218-.131c-.175-.83-.306-1.616-.524-2.445-.349-1.703-.742-3.406-1.179-5.065l-.655-2.489c-.481-1.79-.961-3.493-1.485-5.24-.262-.873-.524-1.747-.83-2.576-21.832-68.159-85.799-117.587-161.119-117.587s-139.288,49.427-161.12,117.587c-.306,.829-.568,1.703-.83,2.576-.524,1.747-1.004,3.449-1.485,5.24l-.655,2.489c-.437,1.659-.83,3.362-1.179,5.065-.218,.83-.349,1.616-.524,2.445l-.218,.131-40.214,24.845,11.746,7.292,26.155-15.806Z"/>
    <polygon class="b" points="466.47 579.428 529.171 503.322 320.153 374.121 320.153 374.165 256.142 449.529 466.47 579.428"/>
    <polygon class="b" points="608.203 579.428 545.502 503.322 754.521 374.121 754.521 374.165 818.532 449.529 608.203 579.428"/>
  </g>
  <g>
    <path class="b" d="M974.979,790.412c-3.231-5.065-8.384-7.597-15.326-7.597-5.109,0-9.17,2.096-12.27,6.288v-31.525h-16.461v89.336h15.151l.524-6.244c3.318,4.934,7.685,7.423,13.143,7.423,6.986,0,12.095-2.576,15.37-7.685,3.275-5.065,4.89-12.706,4.89-22.923v-4.847c-.087-9.737-1.746-17.16-5.021-22.225Zm-11.44,28.993c-.087,5.938-.742,9.955-1.965,12.008-1.223,2.096-3.406,3.1-6.55,3.1-1.834,0-3.362-.393-4.628-1.092-1.31-.742-2.271-1.834-3.013-3.318v-28.775c1.004-1.965,2.358-3.318,4.061-4.061,1.048-.437,2.183-.655,3.493-.655,3.187,0,5.414,1.135,6.681,3.406,1.266,2.271,1.921,6.724,1.921,13.405v5.982Z"/>
    <path class="b" d="M905.029,829.447c-1.659,3.275-4.366,4.89-8.121,4.89-4.017,0-6.026-3.057-6.113-9.169v-41.175h-16.461v40.738c0,7.641,1.484,13.405,4.497,17.378,2.969,3.973,7.335,5.982,13.143,5.982,5.72,0,10.305-2.314,13.71-6.943l.48,5.764h15.457v-62.919h-16.592v45.454Z"/>
    <polygon class="b" points="848.266 791.023 848.266 818.706 848.266 846.913 864.771 846.913 864.771 757.577 848.266 757.577 848.266 791.023"/>
    <path class="b" d="M801.939,780.064c1.878-3.187,5.109-4.803,9.693-4.803,4.497,0,7.598,1.135,9.3,3.406,1.659,2.271,2.576,6.375,2.751,12.357h17.16c-.655-9.65-3.406-17.073-8.165-22.225-4.803-5.152-11.789-7.728-21.046-7.728-9.388,0-16.723,3.144-21.963,9.431-5.283,6.331-7.903,15.282-7.903,26.897v14.278c0,11.658,2.533,20.653,7.641,26.94,5.109,6.288,12.444,9.475,22.006,9.475,9.126,0,16.156-2.489,21.177-7.467,4.977-4.978,7.685-12.27,8.121-21.919h-17.073c-.262,5.72-1.222,9.694-2.925,11.877-1.703,2.227-4.803,3.318-9.3,3.318-4.585,0-7.816-1.572-9.693-4.716-1.878-3.144-2.838-8.951-2.838-17.335v-16.025c.131-7.292,1.135-12.575,3.057-15.763Z"/>
    <path class="b" d="M765.261,829.447c-2.794,0-5.109,.873-6.855,2.576-1.79,1.703-2.663,3.886-2.663,6.506,0,2.663,.917,4.847,2.707,6.506,1.79,1.703,4.061,2.533,6.812,2.533s5.021-.83,6.855-2.489c1.834-1.659,2.751-3.842,2.751-6.55,0-2.664-.917-4.847-2.707-6.55-1.834-1.659-4.148-2.533-6.899-2.533Z"/>
    <path class="b" d="M738.277,783.993l-8.34,35.542-7.597-35.542h-17.684l18.164,63.574-1.266,4.235c-.655,2.445-1.659,4.148-2.926,5.152-1.31,.961-3.231,1.485-5.807,1.485l-1.921-.087v12.881c2.532,.742,4.759,1.092,6.768,1.092,8.558,0,14.365-5.327,17.466-15.981l20.74-72.351h-17.597Z"/>
    <path class="b" d="M693.959,832.722c-.699-.917-1.048-2.663-1.048-5.109v-31.307h8.471v-12.313h-8.471v-15.501h-16.461v15.501h-7.248v12.313h7.248v33.49c.131,12.182,5.502,18.295,16.112,18.295,3.275,0,6.288-.524,9.082-1.572l.131-12.793c-1.004,.262-2.314,.393-3.886,.393-1.965,0-3.275-.48-3.93-1.397Z"/>
    <path class="b" d="M650.731,790.805l-.48-6.812h-15.544v62.919h16.548v-41.568c1.572-3.973,4.628-5.938,9.126-5.938l5.458,.437,.175-16.287c-1.179-.48-2.663-.742-4.541-.742-4.585,0-8.165,2.663-10.741,7.991Z"/>
    <path class="b" d="M625.319,803.598c0-6.681-1.878-11.833-5.676-15.413-3.755-3.58-9.126-5.371-16.025-5.371-6.681,0-12.182,1.878-16.549,5.676-4.366,3.799-6.55,8.558-6.55,14.409h16.461c0-4.803,2.052-7.248,6.2-7.248,1.834,0,3.275,.611,4.236,1.746,.96,1.179,1.441,3.188,1.441,6.026v5.065h-4.977c-7.947,.044-13.972,1.878-18.208,5.502-4.192,3.624-6.288,8.689-6.288,15.282,0,5.545,1.703,10.086,5.196,13.579,3.45,3.493,7.86,5.24,13.099,5.24,5.065,0,9.038-2.052,12.008-6.069,.437,2.314,.917,3.93,1.397,4.89h16.549v-1.004c-1.441-3.057-2.227-7.292-2.314-12.706v-29.604Zm-16.461,27.858c-.611,1.004-1.572,1.878-2.838,2.62-1.266,.699-2.838,1.092-4.672,1.092-3.624,0-5.458-2.314-5.458-6.986,0-2.969,.83-5.371,2.401-7.161,1.616-1.79,3.842-2.663,6.637-2.663h3.93v13.099Z"/>
    <path class="b" d="M546.681,762.249h-28.862v84.664h17.116v-29.779h11.396c8.733,0,15.544-2.401,20.478-7.204,4.89-4.803,7.379-11.353,7.379-19.649s-2.489-15.064-7.467-20.26c-5.021-5.196-11.658-7.772-20.042-7.772Zm7.554,37.42c-1.79,2.139-4.323,3.231-7.554,3.231h-11.746v-26.417h11.92c3.056,.044,5.502,1.31,7.292,3.799,1.834,2.489,2.751,5.851,2.751,10.086,0,4.061-.873,7.205-2.663,9.3Z"/>
    <path class="b" d="M491.97,789.582c-3.1-4.497-7.467-6.768-13.187-6.768-6.724,0-11.92,2.533-15.632,7.641-3.755,5.065-5.589,12.75-5.589,23.054v4.672c.087,9.519,1.921,16.854,5.589,22.05,1.834,2.62,4.061,4.585,6.637,5.895,2.62,1.31,5.589,1.965,8.951,1.965,5.021,0,9.126-2.052,12.27-6.2v5.415c-.044,3.93-.873,6.768-2.489,8.514-1.616,1.79-4.235,2.664-7.947,2.664-2.183,0-4.541-.524-7.03-1.528-2.489-1.048-4.497-2.358-6.026-4.017l-5.545,11.44c1.878,2.096,4.672,3.886,8.514,5.24,3.799,1.397,7.423,2.052,10.872,2.052,8.383,0,14.846-2.096,19.343-6.331,4.497-4.279,6.768-10.392,6.768-18.426v-62.919h-14.846l-.655,5.589Zm-.961,41.088c-1.659,2.445-4.148,3.668-7.51,3.668-3.318,0-5.72-1.31-7.205-3.973-1.528-2.664-2.27-6.899-2.27-12.706v-4.148c0-5.895,.786-10.217,2.358-12.881,1.572-2.707,3.973-4.017,7.205-4.017s5.72,1.31,7.423,4.017v30.041Z"/>
    <path class="b" d="M433.504,782.814c-6.026,0-10.872,2.445-14.627,7.379l-.437-6.2h-15.457v62.919h16.505v-45.716c.83-1.528,1.834-2.664,2.969-3.45,1.179-.742,2.489-1.135,4.017-1.135,2.663,0,4.541,.786,5.589,2.402,1.092,1.616,1.616,4.192,1.616,7.772v40.127h16.505v-41.349c-.306-15.151-5.851-22.749-16.68-22.749Z"/>
    <rect class="b" x="376.785" y="783.993" width="16.548" height="62.919"/>
    <path class="b" d="M384.994,758.974c-2.707,0-4.89,.83-6.506,2.445s-2.445,3.712-2.445,6.288c0,2.489,.83,4.585,2.401,6.288,1.616,1.659,3.799,2.489,6.55,2.489s4.934-.83,6.55-2.489c1.616-1.703,2.401-3.799,2.401-6.288,0-2.576-.786-4.672-2.445-6.288-1.616-1.616-3.799-2.445-6.506-2.445Z"/>
    <path class="b" d="M350.63,782.814c-6.026,0-10.872,2.445-14.584,7.379l-.48-6.2h-15.501v62.919h16.548v-45.716c.83-1.528,1.834-2.664,2.969-3.45,1.179-.742,2.489-1.135,4.017-1.135,2.664,0,4.541,.786,5.589,2.402,1.092,1.616,1.616,4.192,1.616,7.772v40.127h16.505v-41.349c-.306-15.151-5.851-22.749-16.68-22.749Z"/>
    <path class="b" d="M289.239,782.814c-8.122,0-14.322,2.707-18.688,8.078-1.616,2.009-2.925,4.366-3.973,7.03-1.659,4.454-2.533,9.737-2.533,15.937v5.021c0,4.803,.611,9.038,1.878,12.706,1.179,3.493,2.882,6.462,5.196,8.908,4.759,5.065,11.352,7.597,19.78,7.597,4.497,0,8.689-.873,12.531-2.62,3.842-1.703,6.768-3.973,8.776-6.768l-6.462-9.955c-3.668,3.842-8.296,5.763-13.798,5.763-3.799,0-6.593-1.092-8.427-3.275-1.834-2.139-2.838-5.589-3.057-10.305h32.748v-8.078c-.087-9.912-2.139-17.422-6.113-22.443-4.017-5.065-9.955-7.597-17.858-7.597Zm7.772,26.635h-16.461c.262-4.585,1.004-7.903,2.314-9.955,1.31-2.096,3.362-3.144,6.244-3.144s4.89,1.004,6.069,2.969c1.135,1.921,1.747,4.803,1.834,8.602v1.528Z"/>
    <path class="b" d="M252.256,832.722c-.655-.917-1.004-2.663-1.004-5.109v-31.307h8.427v-12.313h-8.427v-15.501h-16.461v15.501h-7.248v12.313h7.248v33.49c.131,12.182,5.502,18.295,16.112,18.295,3.275,0,6.288-.524,9.082-1.572l.131-12.793c-1.048,.262-2.314,.393-3.93,.393-1.921,0-3.231-.48-3.93-1.397Z"/>
    <path class="b" d="M205.317,809.275c-4.628-1.965-7.554-3.493-8.82-4.541-1.223-1.092-1.834-2.314-1.834-3.712,0-1.921,.568-3.449,1.659-4.541,1.135-1.092,2.576-1.616,4.323-1.616,4.279,0,6.419,2.532,6.419,7.685h16.461c0-6.026-2.096-10.829-6.244-14.366-4.148-3.58-9.693-5.371-16.592-5.371h-.48c-6.331,.087-11.396,1.878-15.282,5.371-3.974,3.58-5.982,8.165-5.982,13.667,0,4.366,1.266,8.034,3.799,10.96,2.576,2.969,7.205,5.807,14.016,8.558,4.585,2.008,7.597,3.624,8.907,4.803,1.354,1.179,2.009,2.489,2.009,3.886,0,3.973-2.183,5.982-6.637,5.982-2.838,0-4.934-.742-6.2-2.139-1.223-1.441-1.921-3.624-1.965-6.462h-15.675c0,3.712,1.004,7.161,3.013,10.392,2.009,3.231,4.759,5.72,8.296,7.554,3.493,1.79,7.597,2.707,12.182,2.707,.262,0,.524,0,.742-.044,6.55-.087,11.877-1.79,15.894-5.109,4.236-3.406,6.375-7.903,6.375-13.536,0-4.847-1.397-8.776-4.192-11.833-2.751-3.057-7.51-5.807-14.191-8.296Z"/>
    <rect class="b" x="153.838" y="783.993" width="16.505" height="62.919"/>
    <path class="b" d="M162.046,758.974c-2.707,0-4.89,.83-6.506,2.445-1.659,1.616-2.445,3.712-2.445,6.288,0,2.489,.786,4.585,2.401,6.288,1.616,1.659,3.799,2.489,6.55,2.489s4.934-.83,6.55-2.489c1.572-1.703,2.401-3.799,2.401-6.288,0-2.576-.83-4.672-2.445-6.288s-3.799-2.445-6.506-2.445Z"/>
    <polygon class="b" points="117.073 762.249 100 762.249 100 846.913 147.07 846.913 147.07 832.722 117.073 832.722 117.073 762.249"/>
  </g>
</svg>