<?xml version="1.0" encoding="UTF-8"?>
<svg id="a" data-name="Layer 1" xmlns="http://www.w3.org/2000/svg" width="1080" height="1080" viewBox="0 0 1080 1080">
  <defs>
    <style>
      .b {
        fill: #231f20;
      }
    </style>
  </defs>
  <path class="b" d="M828.714,517.808c1.017,1.251,1.465,2.889,1.241,4.446-.264,1.597-1.2,3.021-2.574,3.866l-5.503,3.377-64.231,39.704v82.847c0,1.902-.977,3.683-2.625,4.7l-213.649,132.012-8.443,5.249c-.173,.132-.356,.173-.529,.214-.092,.092-.183,.132-.264,.224-.092,0-.224,0-.315,.051-.58,.214-1.2,.356-1.821,.356s-1.241-.142-1.821-.356c-.092-.051-.173-.051-.264-.051-.132-.092-.224-.132-.315-.224-.173-.041-.356-.081-.529-.214l-222.092-137.262c-1.597-1.017-2.625-2.798-2.625-4.7v-82.847l-69.735-43.082c-1.373-.844-2.309-2.269-2.533-3.866-.264-1.556,.183-3.194,1.251-4.446l4.171-4.883,68.178-80.396c.051,0,.051-.041,.092-.041,.041-.051,.132-.183,.183-.224,.132-.132,.305-.264,.437-.356,.051-.051,.092-.051,.132-.132,.092-.051,.183-.132,.275-.183l.173-.173,61.118-37.761c-5.331,16.571-8.22,34.201-8.22,52.502,0,4.974,.275,9.868,.671,14.751l11.994,7.416c-.977-7.233-1.556-14.659-1.556-22.167,0-88.788,72.227-161.015,161.015-161.015s161.015,72.227,161.015,161.015c0,7.508-.529,14.934-1.556,22.167l11.994-7.416c.407-4.883,.671-9.776,.671-14.751,0-18.301-2.889-35.93-8.22-52.502l61.118,37.761c.183,.173,.356,.264,.539,.437,.173,.142,.346,.224,.488,.407,.081,.041,.132,.173,.173,.224,.041,0,.092,.041,.092,.041l72.4,85.279Zm-12.655,2.269l-65.126-76.713-212.581,131.483,35.005,42.461,28.779,34.913,213.924-132.145Zm-69.521,128.899v-46.907l-199.926,123.579v-90.08l18.169-11.2-29.226-35.483v190.465l210.984-130.375Zm-83.285-164.433c2.625-10.305,3.998-21.098,3.998-32.116,0-3.062-2.482-5.554-5.554-5.554s-5.544,2.492-5.544,5.554c0,14.344-2.533,28.158-7.243,40.956l14.344-8.84Zm-17.68-32.116c0-3.062-2.482-5.554-5.544-5.554s-5.554,2.492-5.554,5.554c0,25.005-9.461,47.924-24.964,65.34l23.499-14.567c8.037-15.188,12.563-32.472,12.563-50.772Zm-23.357,0c0-3.062-2.492-5.554-5.554-5.554s-5.554,2.492-5.554,5.554c0,41.22-33.58,74.841-74.892,74.841-3.062,0-5.544,2.492-5.544,5.554s2.482,5.554,5.544,5.554c47.446,0,86.001-38.596,86.001-85.95Zm-36.826-6.266c0-30.6-24.781-55.381-55.391-55.381s-55.34,24.781-55.34,55.381,24.781,55.391,55.34,55.391,55.391-24.822,55.391-55.391Zm-46.947,115.532l23.357-14.476c-8.169,2.218-16.744,3.418-25.585,3.418-3.062,0-5.544,2.492-5.544,5.595,0,3.072,2.482,5.514,5.544,5.514,.763,0,1.465-.051,2.228-.051Zm-9.105-247.229c0-3.062-2.492-5.554-5.554-5.554-72.227,0-131.036,58.768-131.036,131.036,0,3.062,2.482,5.554,5.554,5.554s5.554-2.492,5.554-5.554c0-66.093,53.784-119.927,119.927-119.927,3.062,0,5.554-2.492,5.554-5.554Zm0,21.638c0-3.072-2.492-5.554-5.554-5.554-60.274,0-109.358,49.084-109.358,109.398,0,3.062,2.482,5.554,5.554,5.554s5.544-2.492,5.544-5.554c0-54.14,44.069-98.3,98.259-98.3,3.062,0,5.554-2.441,5.554-5.544Zm0,23.357c0-3.062-2.492-5.554-5.554-5.554-47.395,0-86.001,38.606-86.001,86.041,0,3.062,2.492,5.554,5.554,5.554s5.554-2.492,5.554-5.554c0-41.312,33.58-74.933,74.892-74.933,3.062,0,5.554-2.441,5.554-5.554Zm-4.842,398.082v-31.892s-.051-110.334-.051-110.426v-26.337l-29.226,35.483,18.169,11.2v90.08l-199.926-123.579v46.907l210.984,130.375v-21.546c0-.092,.051-.183,.051-.264Zm-66.591-105.319l63.794-77.374-212.632-131.483-65.116,76.713,213.954,132.145Z"/>
  <path class="b" d="M530,400.241c25.32,0,45.93,20.559,45.93,45.92s-20.61,45.93-45.93,45.93c-3.062,0-5.554-2.482-5.554-5.554,0-3.011,2.492-5.544,5.554-5.544,19.237,0,34.821-15.636,34.821-34.832s-15.585-34.821-34.821-34.821c-3.062,0-5.554-2.533-5.554-5.554,0-3.062,2.492-5.544,5.554-5.544Z"/>
  <path class="b" d="M530,431.726c7.955,0,14.435,6.45,14.435,14.435s-6.48,14.395-14.435,14.395-14.395-6.439-14.395-14.395,6.439-14.435,14.395-14.435Z"/>
</svg>